<svg xmlns="http://www.w3.org/2000/svg" xmlns:xlink="http://www.w3.org/1999/xlink" width="500" zoomAndPan="magnify"
    viewBox="0 0 375 374.999991" height="500" preserveAspectRatio="xMidYMid meet" version="1.0">
    <defs>
        <g />
        <clipPath id="4159c5883a">
            <path
                d="M 24.457031 148.394531 L 102.664062 148.394531 L 102.664062 226.605469 L 24.457031 226.605469 Z M 24.457031 148.394531 "
                clip-rule="nonzero" />
        </clipPath>
        <clipPath id="79159aed59">
            <path
                d="M 43.957031 148.394531 L 83.164062 148.394531 C 93.933594 148.394531 102.664062 157.125 102.664062 167.894531 L 102.664062 207.105469 C 102.664062 217.875 93.933594 226.605469 83.164062 226.605469 L 43.957031 226.605469 C 33.1875 226.605469 24.457031 217.875 24.457031 207.105469 L 24.457031 167.894531 C 24.457031 157.125 33.1875 148.394531 43.957031 148.394531 Z M 43.957031 148.394531 "
                clip-rule="nonzero" />
        </clipPath>
        <clipPath id="1273993d7e">
            <path d="M 32.234375 164.050781 L 47 164.050781 L 47 211 L 32.234375 211 Z M 32.234375 164.050781 "
                clip-rule="nonzero" />
        </clipPath>
        <clipPath id="1391465f39">
            <path d="M 80 164.050781 L 94.878906 164.050781 L 94.878906 211 L 80 211 Z M 80 164.050781 "
                clip-rule="nonzero" />
        </clipPath>
    </defs>
    <g clip-path="url(#4159c5883a)">
        <g clip-path="url(#79159aed59)">
            <path fill="#000000"
                d="M 24.457031 148.394531 L 102.664062 148.394531 L 102.664062 226.605469 L 24.457031 226.605469 Z M 24.457031 148.394531 "
                fill-opacity="1" fill-rule="nonzero" />
        </g>
    </g>
    <g clip-path="url(#1273993d7e)">
        <path fill="#ffffff"
            d="M 45.269531 169.261719 L 46.574219 169.261719 L 46.574219 164.050781 L 45.269531 164.050781 C 40.957031 164.050781 37.457031 167.550781 37.457031 171.867188 L 37.457031 180.984375 C 37.457031 181.800781 37.070312 182.574219 36.414062 183.066406 L 33.289062 185.410156 C 32.664062 185.878906 32.28125 186.605469 32.25 187.386719 C 32.214844 188.167969 32.535156 188.921875 33.121094 189.441406 L 36.582031 192.515625 C 37.136719 193.011719 37.457031 193.71875 37.457031 194.464844 L 37.457031 203.125 C 37.457031 207.441406 40.957031 210.9375 45.269531 210.9375 L 46.574219 210.9375 L 46.574219 205.726562 L 45.269531 205.726562 C 43.832031 205.726562 42.667969 204.5625 42.667969 203.125 L 42.667969 194.464844 C 42.667969 192.230469 41.710938 190.105469 40.042969 188.625 L 38.964844 187.664062 L 39.539062 187.234375 C 41.507812 185.757812 42.667969 183.441406 42.667969 180.984375 L 42.667969 171.867188 C 42.667969 170.425781 43.832031 169.261719 45.269531 169.261719 Z M 45.269531 169.261719 "
            fill-opacity="1" fill-rule="evenodd" />
    </g>
    <g clip-path="url(#1391465f39)">
        <path fill="#ffffff"
            d="M 82.105469 169.261719 L 80.800781 169.261719 L 80.800781 164.050781 L 82.105469 164.050781 C 86.421875 164.050781 89.917969 167.550781 89.917969 171.867188 L 89.917969 180.984375 C 89.917969 181.800781 90.304688 182.574219 90.960938 183.066406 L 94.085938 185.410156 C 94.710938 185.878906 95.09375 186.605469 95.125 187.386719 C 95.160156 188.167969 94.839844 188.921875 94.253906 189.441406 L 90.792969 192.515625 C 90.238281 193.011719 89.917969 193.71875 89.917969 194.464844 L 89.917969 203.125 C 89.917969 207.441406 86.421875 210.9375 82.105469 210.9375 L 80.800781 210.9375 L 80.800781 205.726562 L 82.105469 205.726562 C 83.542969 205.726562 84.710938 204.5625 84.710938 203.125 L 84.710938 194.464844 C 84.710938 192.230469 85.664062 190.105469 87.332031 188.625 L 88.410156 187.664062 L 87.835938 187.234375 C 85.867188 185.757812 84.710938 183.441406 84.710938 180.984375 L 84.710938 171.867188 C 84.710938 170.425781 83.542969 169.261719 82.105469 169.261719 Z M 82.105469 169.261719 "
            fill-opacity="1" fill-rule="evenodd" />
    </g>
    <g fill="#000000" fill-opacity="1">
        <g transform="translate(116.720555, 201.628537)">
            <g>
                <path
                    d="M 40.09375 -0.046875 L 33.21875 -0.046875 L 33.21875 -25.359375 C 33.21875 -25.828125 33.300781 -27.050781 33.46875 -29.03125 C 33.363281 -28.757812 33.234375 -28.375 33.078125 -27.875 C 32.929688 -27.382812 32.789062 -26.9375 32.65625 -26.53125 C 32.519531 -26.125 32.378906 -25.734375 32.234375 -25.359375 L 23.109375 0 L 19.328125 0 L 9.953125 -25.359375 C 9.816406 -25.734375 9.675781 -26.125 9.53125 -26.53125 C 9.394531 -26.9375 9.25 -27.382812 9.09375 -27.875 C 8.945312 -28.375 8.820312 -28.757812 8.71875 -29.03125 C 8.71875 -28.71875 8.757812 -28.132812 8.84375 -27.28125 C 8.9375 -26.4375 8.984375 -25.796875 8.984375 -25.359375 L 8.984375 -0.046875 L 3.421875 -0.046875 L 3.421875 -34.234375 C 3.421875 -34.265625 3.359375 -34.515625 3.234375 -34.984375 C 3.117188 -35.460938 3 -35.957031 2.875 -36.46875 C 2.757812 -36.976562 2.703125 -37.269531 2.703125 -37.34375 L 12.5 -37.34375 L 20.453125 -15.921875 C 20.828125 -14.898438 21.320312 -12.84375 21.9375 -9.75 C 22 -9.976562 22.175781 -10.832031 22.46875 -12.3125 C 22.757812 -13.800781 23.039062 -14.9375 23.3125 -15.71875 L 31.125 -37.34375 L 40.09375 -37.34375 Z M 40.09375 -0.046875 " />
            </g>
        </g>
    </g>
    <g fill="#000000" fill-opacity="1">
        <g transform="translate(158.655834, 201.628537)">
            <g>
                <path
                    d="M 36.625 -18.625 C 36.625 -13.007812 35.007812 -8.40625 31.78125 -4.8125 C 28.550781 -1.226562 24.164062 0.5625 18.625 0.5625 C 13.082031 0.5625 8.753906 -1.25 5.640625 -4.875 C 2.523438 -8.5 0.96875 -13.113281 0.96875 -18.71875 C 0.96875 -24.363281 2.53125 -28.972656 5.65625 -32.546875 C 8.789062 -36.117188 13.128906 -37.90625 18.671875 -37.90625 C 24.347656 -37.90625 28.757812 -36.128906 31.90625 -32.578125 C 35.050781 -29.023438 36.625 -24.375 36.625 -18.625 Z M 29.078125 -18.421875 C 29.078125 -20.222656 28.90625 -21.929688 28.5625 -23.546875 C 28.226562 -25.160156 27.6875 -26.707031 26.9375 -28.1875 C 26.1875 -29.664062 25.101562 -30.847656 23.6875 -31.734375 C 22.28125 -32.617188 20.625 -33.0625 18.71875 -33.0625 C 16.851562 -33.0625 15.222656 -32.644531 13.828125 -31.8125 C 12.429688 -30.976562 11.359375 -29.851562 10.609375 -28.4375 C 9.859375 -27.03125 9.3125 -25.535156 8.96875 -23.953125 C 8.632812 -22.367188 8.46875 -20.691406 8.46875 -18.921875 C 8.46875 -17.117188 8.632812 -15.410156 8.96875 -13.796875 C 9.3125 -12.179688 9.859375 -10.632812 10.609375 -9.15625 C 11.359375 -7.675781 12.4375 -6.492188 13.84375 -5.609375 C 15.257812 -4.722656 16.921875 -4.28125 18.828125 -4.28125 C 20.691406 -4.28125 22.320312 -4.695312 23.71875 -5.53125 C 25.113281 -6.363281 26.1875 -7.484375 26.9375 -8.890625 C 27.6875 -10.304688 28.226562 -11.804688 28.5625 -13.390625 C 28.90625 -14.972656 29.078125 -16.648438 29.078125 -18.421875 Z M 29.078125 -18.421875 " />
            </g>
        </g>
    </g>
    <g fill="#000000" fill-opacity="1">
        <g transform="translate(195.438479, 201.628537)">
            <g>
                <path
                    d="M 33.15625 0 L 26.125 0 L 26.125 -16.6875 L 10.453125 -16.6875 L 10.453125 0 L 3.421875 0 L 3.421875 -34.234375 C 3.421875 -34.265625 3.359375 -34.515625 3.234375 -34.984375 C 3.117188 -35.460938 3 -35.957031 2.875 -36.46875 C 2.757812 -36.976562 2.703125 -37.269531 2.703125 -37.34375 L 10.453125 -37.34375 L 10.453125 -21.734375 L 26.125 -21.734375 L 26.125 -37.34375 L 33.15625 -37.34375 Z M 33.15625 0 " />
            </g>
        </g>
    </g>
    <g fill="#000000" fill-opacity="1">
        <g transform="translate(231.047749, 201.628537)">
            <g>
                <path
                    d="M 34.6875 -18.625 C 34.6875 -12.90625 32.9375 -8.3125 29.4375 -4.84375 C 26.207031 -1.613281 21.957031 0 16.6875 0 L 3.421875 0 L 3.421875 -34.234375 C 3.421875 -34.265625 3.289062 -34.765625 3.03125 -35.734375 C 2.78125 -36.703125 2.640625 -37.238281 2.609375 -37.34375 L 16.734375 -37.34375 C 22.347656 -37.34375 26.742188 -35.632812 29.921875 -32.21875 C 33.097656 -28.800781 34.6875 -24.269531 34.6875 -18.625 Z M 27.140625 -18.421875 C 27.140625 -20.867188 26.796875 -23.09375 26.109375 -25.09375 C 25.429688 -27.101562 24.25 -28.804688 22.5625 -30.203125 C 20.882812 -31.597656 18.789062 -32.296875 16.28125 -32.296875 L 10.453125 -32.296875 L 10.453125 -5.046875 L 16.375 -5.046875 C 18.25 -5.046875 19.898438 -5.410156 21.328125 -6.140625 C 22.753906 -6.878906 23.875 -7.882812 24.6875 -9.15625 C 25.507812 -10.4375 26.125 -11.847656 26.53125 -13.390625 C 26.9375 -14.941406 27.140625 -16.617188 27.140625 -18.421875 Z M 27.140625 -18.421875 " />
            </g>
        </g>
    </g>
    <g fill="#000000" fill-opacity="1">
        <g transform="translate(265.891769, 201.628537)">
            <g />
        </g>
    </g>
    <g fill="#000000" fill-opacity="1">
        <g transform="translate(276.809176, 201.628537)">
            <g>
                <path
                    d="M 32.09375 0 L 24.53125 0 L 20.859375 -10.71875 L 9.84375 -10.71875 L 6.015625 0 L 0.109375 0 L 13.3125 -37.34375 L 18.875 -37.34375 Z M 19.1875 -15.71875 C 17.550781 -20.71875 16.253906 -24.96875 15.296875 -28.46875 C 14.140625 -24.21875 12.898438 -19.96875 11.578125 -15.71875 Z M 19.1875 -15.71875 " />
            </g>
        </g>
    </g>
    <g fill="#000000" fill-opacity="1">
        <g transform="translate(308.18409, 201.628537)">
            <g>
                <path
                    d="M 25.09375 0 L 3.359375 0 L 3.359375 -34.234375 C 3.359375 -34.265625 3.304688 -34.515625 3.203125 -34.984375 C 3.109375 -35.460938 3 -35.957031 2.875 -36.46875 C 2.757812 -36.976562 2.703125 -37.269531 2.703125 -37.34375 L 10.453125 -37.34375 L 10.453125 -5.046875 L 25.09375 -5.046875 Z M 25.09375 0 " />
            </g>
        </g>
    </g>
    <g fill="#000000" fill-opacity="1">
        <g transform="translate(333.590113, 201.628537)">
            <g>
                <path
                    d="M 10.40625 0 L 3.359375 0 L 3.359375 -34.234375 C 3.359375 -34.265625 3.300781 -34.515625 3.1875 -34.984375 C 3.070312 -35.460938 2.953125 -35.957031 2.828125 -36.46875 C 2.710938 -36.976562 2.65625 -37.269531 2.65625 -37.34375 L 10.40625 -37.34375 Z M 10.40625 0 " />
            </g>
        </g>
    </g>
    <g fill="#ffffff" fill-opacity="1">
        <g transform="translate(49.38392, 203.264527)">
            <g>
                <path
                    d="M 29.296875 0 L 22.40625 0 L 19.046875 -9.78125 L 8.984375 -9.78125 L 5.5 0 L 0.09375 0 L 12.15625 -34.09375 L 17.234375 -34.09375 Z M 17.515625 -14.34375 C 16.023438 -18.90625 14.84375 -22.785156 13.96875 -25.984375 C 12.914062 -22.109375 11.785156 -18.226562 10.578125 -14.34375 Z M 17.515625 -14.34375 " />
            </g>
        </g>
    </g>
</svg>